<?xml version="1.0" encoding="utf-8"?>
<!-- Generator: Adobe Illustrator 28.0.0, SVG Export Plug-In . SVG Version: 6.00 Build 0)  -->
<svg version="1.1" id="Layer_1" xmlns="http://www.w3.org/2000/svg" xmlns:xlink="http://www.w3.org/1999/xlink" x="0px" y="0px"
	 viewBox="0 0 801 1001" style="enable-background:new 0 0 801 1001;" xml:space="preserve">
<style type="text/css">
	.st0{fill:none;stroke:#000000;stroke-miterlimit:10;}
	.st1{stroke:#000000;stroke-miterlimit:10;}
	.st2{fill:#FFFFFF;stroke:#000000;stroke-miterlimit:10;}
	.st3{font-family:'Helvetica';}
	.st4{font-size:12px;}
	.st5{font-family:'Helvetica-Bold';}
	.st6{fill:#FFFFFF;stroke:#000000;}
</style>
<g>
	<path pointer-events="stroke" class="st0" d="M385.5,166.9v33.6l0.4,33.6"/>
	<path pointer-events="all" class="st1" d="M385.5,161.6l3.5,7l-3.5-1.8l-3.5,1.8L385.5,161.6z"/>
	<path pointer-events="all" class="st1" d="M386,239.4l-3.6-7l3.5,1.7l3.5-1.8L386,239.4z"/>
	<path pointer-events="all" class="st2" d="M305.5,20.5c0-26.7,160-26.7,160,0v120c0,26.7-160,26.7-160,0V20.5z"/>
	<path pointer-events="all" class="st0" d="M305.5,20.5c0,20,160,20,160,0 M305.5,30.5c0,20,160,20,160,0 M305.5,40.5
		c0,20,160,20,160,0"/>
	<g transform="translate(-0.5 -0.5)">
		<text transform="matrix(1 0 0 1 345.1465 109.5)" class="st3 st4">UA Product DB</text>
	</g>
	<path pointer-events="all" class="st2" d="M120.5,1000.5c0-52,0-78,43.3-78c-28.9,0-28.9-52,0-52c28.9,0,28.9,52,0,52
		c43.3,0,43.3,26,43.3,78H120.5z"/>
	<g transform="translate(-0.5 -0.5)">
		<text transform="matrix(1 0 0 1 132.9316 939.5)" class="st3 st4">ANY USER</text>
	</g>
	<path pointer-events="all" class="st2" d="M600.5,1000.5c0-52,0-78,43.3-78c-28.9,0-28.9-52,0-52c28.9,0,28.9,52,0,52
		c43.3,0,43.3,26,43.3,78H600.5z"/>
	<g transform="translate(-0.5 -0.5)">
		<text transform="matrix(1 0 0 1 624.167 939.5)" class="st3 st4">ADMIN</text>
	</g>
	<path pointer-events="stroke" class="st0" d="M175.5,760.5v55h-11.7l0,48.6"/>
	<path pointer-events="all" class="st1" d="M163.8,869.4l-3.5-7l3.5,1.8l3.5-1.8L163.8,869.4z"/>
	<path pointer-events="all" class="st2" d="M0.5,533.5v-23h350v23"/>
	<path pointer-events="none" class="st0" d="M0.5,533.5v227h350v-227"/>
	<path pointer-events="none" class="st0" d="M0.5,533.5h350"/>
	<g transform="translate(-0.5 -0.5)">
		<text transform="matrix(1 0 0 1 137.2676 525.5)" class="st5 st4">Main Website</text>
	</g>
	<path pointer-events="all" class="st2" d="M20.5,570.5l30-20h260c13.3,0,20,6.7,20,20s-6.7,20-20,20h-260L20.5,570.5z"/>
	<g transform="translate(-0.5 -0.5)">
		<text transform="matrix(1 0 0 1 132.4746 574.5)" class="st3 st4">Product Catalog</text>
	</g>
	<path pointer-events="all" class="st2" d="M20.5,620.5l30-20h260c13.3,0,20,6.7,20,20s-6.7,20-20,20h-260L20.5,620.5z"/>
	<g transform="translate(-0.5 -0.5)">
		<text transform="matrix(1 0 0 1 144.1406 624.5)" class="st3 st4">About Page</text>
	</g>
	<path pointer-events="all" class="st2" d="M20.5,670.5l30-20h260c13.3,0,20,6.7,20,20s-6.7,20-20,20h-260L20.5,670.5z"/>
	<g transform="translate(-0.5 -0.5)">
		<text transform="matrix(1 0 0 1 139.1426 674.5)" class="st3 st4">Contact Page</text>
	</g>
	<path pointer-events="all" class="st2" d="M20.5,720.5l30-20h260c13.3,0,20,6.7,20,20s-6.7,20-20,20h-260L20.5,720.5z"/>
	<g transform="translate(-0.5 -0.5)">
		<text transform="matrix(1 0 0 1 143.1475 724.5)" class="st3 st4">Product Info</text>
	</g>
	<ellipse pointer-events="all" class="st6" cx="386" cy="323" rx="82.5" ry="82.5"/>
	<g transform="translate(-0.5 -0.5)">
		<text transform="matrix(1 0 0 1 368.8281 326.5)" class="st3 st4">Server</text>
	</g>
	<path pointer-events="stroke" class="st0" d="M625.5,716.9v73.6h18.3l0,73.6"/>
	<path pointer-events="all" class="st1" d="M625.5,711.6l3.5,7l-3.5-1.8l-3.5,1.8L625.5,711.6z"/>
	<path pointer-events="all" class="st1" d="M643.8,869.4l-3.5-7l3.5,1.8l3.5-1.8L643.8,869.4z"/>
	<path pointer-events="all" class="st2" d="M450.5,583.5v-23h350v23"/>
	<path pointer-events="none" class="st0" d="M450.5,583.5v127h350v-127"/>
	<path pointer-events="none" class="st0" d="M450.5,583.5h350"/>
	<g transform="translate(-0.5 -0.5)">
		<text transform="matrix(1 0 0 1 569.5957 575.5)" class="st5 st4">Dashboard Website</text>
	</g>
	<path pointer-events="all" class="st2" d="M470.5,620.5l30-20h260c13.3,0,20,6.7,20,20s-6.7,20-20,20h-260L470.5,620.5z"/>
	<g transform="translate(-0.5 -0.5)">
		<text transform="matrix(1 0 0 1 593.8184 624.5)" class="st3 st4">Product List</text>
	</g>
	<path pointer-events="all" class="st2" d="M470.5,670.5l30-20h260c13.3,0,20,6.7,20,20s-6.7,20-20,20h-260L470.5,670.5z"/>
	<g transform="translate(-0.5 -0.5)">
		<text transform="matrix(1 0 0 1 593.1475 674.5)" class="st3 st4">Product Info</text>
	</g>
	<path pointer-events="stroke" class="st0" d="M464.1,620.5h-63.6l0-211.6"/>
	<path pointer-events="all" class="st1" d="M469.4,620.5l-7,3.5l1.8-3.5l-1.8-3.5L469.4,620.5z"/>
	<path pointer-events="all" class="st1" d="M400.5,403.6l3.5,7l-3.5-1.8l-3.5,1.8L400.5,403.6z"/>
	<path pointer-events="stroke" class="st0" d="M375.4,405.5l0,165h-38.5"/>
	<path pointer-events="all" class="st1" d="M331.6,570.5l7-3.5l-1.8,3.5l1.8,3.5L331.6,570.5z"/>
	<path pointer-events="stroke" class="st0" d="M375.4,404.5l0,316h-38.5"/>
	<path pointer-events="all" class="st1" d="M331.6,720.5l7-3.5l-1.8,3.5l1.8,3.5L331.6,720.5z"/>
	<path pointer-events="stroke" class="st0" d="M464.1,670.5h-63.6l0-261.6"/>
	<path pointer-events="all" class="st1" d="M469.4,670.5l-7,3.5l1.8-3.5l-1.8-3.5L469.4,670.5z"/>
	<path pointer-events="all" class="st1" d="M400.5,403.6l3.5,7l-3.5-1.8l-3.5,1.8L400.5,403.6z"/>
</g>
</svg>
