<?xml version="1.0" encoding="UTF-8"?>
<svg id="uuid-d280ed45-a671-46a9-87ec-d197997652fc" data-name="Layer 1" xmlns="http://www.w3.org/2000/svg" viewBox="0 0 480 480">
  <path d="M341.3046875,360.08544921875h-62.26171875v-83.921875h-76.5234375v83.921875h-63.8251953125v-128.5380859375l101.3056640625-103.8515625,101.3046875,103.8515625v128.5380859375ZM295.04296875,344.08544921875h30.26171875v-106.0263671875l-85.3046875-87.44921875-85.3056640625,87.44921875v106.0263671875h31.8251953125v-83.921875h108.5234375v83.921875Z" style="fill: #000; stroke-width: 0px;"/>
  <path d="M124.9326171875,235.41845703125c-2.0380859375,0-4.0771484375-.7744140625-5.6376953125-2.32421875-3.134765625-3.11328125-3.15234375-8.1787109375-.0380859375-11.3134765625l120.33203125-121.1533203125,121.1357421875,121.1337890625c3.1240234375,3.125,3.1240234375,8.189453125,0,11.314453125-3.125,3.123046875-8.189453125,3.123046875-11.314453125,0l-109.7822265625-109.7822265625-109.01953125,109.7626953125c-1.5634765625,1.57421875-3.619140625,2.3623046875-5.67578125,2.3623046875Z" style="fill: #000; stroke-width: 0px;"/>
  <path d="M278.189453125,241.76025390625h-76.732421875l.3154296875-8.3037109375c.521484375-13.7490234375,8.8017578125-39.7529296875,36.40234375-39.7529296875,11.7431640625,0,21.2841796875,3.607421875,28.3603515625,10.720703125,11.658203125,11.72265625,11.701171875,28.6640625,11.697265625,29.37890625l-.04296875,7.95703125ZM219.2939453125,225.76025390625h41.583984375c-.470703125-1.5654296875-1.1044921875-3.232421875-1.9580078125-4.8740234375-3.9150390625-7.5244140625-10.701171875-11.1826171875-20.7451171875-11.1826171875-7.9814453125,0-13.3740234375,3.505859375-16.9736328125,11.0322265625-.8095703125,1.693359375-1.4306640625,3.41015625-1.9072265625,5.0244140625Z" style="fill: #000; stroke-width: 0px;"/>
  <path d="M355.328125,379.37255859375H124.671875c-4.41796875,0-8-3.58203125-8-8s3.58203125-8,8-8h230.65625c4.41796875,0,8,3.58203125,8,8s-3.58203125,8-8,8Z" style="fill: #000; stroke-width: 0px;"/>
  <polygon points="269.71875 360.08544921875 253.71875 360.08544921875 253.71875 299.79345703125 226.2802734375 299.79345703125 226.2802734375 360.08544921875 210.2802734375 360.08544921875 210.2802734375 283.79345703125 269.71875 283.79345703125 269.71875 360.08544921875" style="fill: #000; stroke-width: 0px;"/>
</svg>