<?xml version="1.0" encoding="UTF-8"?>
<svg id="uuid-649f3336-c6c3-47e8-a305-17ecc7f9a3c2" data-name="Layer 1" xmlns="http://www.w3.org/2000/svg" viewBox="0 0 480 480">
  <defs>
    <style>
      .uuid-8be7967b-b309-4a85-a9fe-81d7f224efc8 {
        fill: #000;
        stroke-width: 0px;
      }
    </style>
  </defs>
  <path class="uuid-8be7967b-b309-4a85-a9fe-81d7f224efc8" d="M399.288,237.203H80.712c-4.418,0-8,3.582-8,8s3.582,8,8,8h2.572c-.338,9.049-.757,56.117,25.121,83.64,12.328,13.111,28.57,19.759,48.276,19.759h166.638c19.706,0,35.948-6.648,48.275-19.759,25.878-27.523,25.458-74.591,25.12-83.64h2.573c4.418,0,8-3.582,8-8s-3.582-8-8-8ZM359.906,325.917c-9.309,9.881-21.276,14.684-36.587,14.684h-166.638c-15.311,0-27.278-4.803-36.586-14.684-22.132-23.493-21.001-67.683-20.794-72.714h281.398c.207,5.067,1.33,49.231-20.793,72.714Z"/>
  <path class="uuid-8be7967b-b309-4a85-a9fe-81d7f224efc8" d="M323.494,361.089h-166.988c-4.418,0-8,3.582-8,8s3.582,8,8,8h166.988c4.418,0,8-3.582,8-8s-3.582-8-8-8Z"/>
  <path class="uuid-8be7967b-b309-4a85-a9fe-81d7f224efc8" d="M316.769,135.719c-.12-3.03-.63-5.865-1.46-8.518,6.377-3.142,9.952-3.377,11.159-2.776.823.411,1.302,2.479,1.331,3.491v105.892h16v-105.858c.011-1.279-.179-12.644-9.938-17.714-6.941-3.605-15.936-2.472-27.28,3.458-3.861-3.483-8.666-6.2-14.194-8.059-9.12-2.952-19.864-3.448-29.903-1.766,0,0,46.417,61.926,46.417,61.926,5.019-9.372,8.217-20.113,7.868-30.077Z"/>
  <path class="uuid-8be7967b-b309-4a85-a9fe-81d7f224efc8" d="M135.59,209.08h85.364c4.418,0,8-3.582,8-8s-3.582-8-8-8h-2.456c-.388-4.339-2.052-13.482-9.098-20.568-5.735-5.769-13.466-8.693-22.979-8.693h-14.631c-13.478,0-24.004,5.664-29.642,15.947-2.872,5.239-3.787,10.405-4.079,13.314h-2.479c-4.418,0-8,3.582-8,8s3.582,8,8,8ZM156.407,187.055c2.859-4.869,7.891-7.236,15.383-7.236h14.631c6.861,0,11.276,2.24,13.893,7.048,1.212,2.226,1.783,4.548,2.054,6.213h-48.146c.303-1.631.92-3.872,2.185-6.025Z"/>
</svg>