<?xml version="1.0" encoding="UTF-8"?>
<svg id="uuid-59f0fb4e-a305-47b4-a5a5-921d4e25ef63" data-name="Layer 1" xmlns="http://www.w3.org/2000/svg" viewBox="0 0 480 480">
  <defs>
    <style>
      .uuid-8ec45ce4-aa19-46a2-8b45-1677b165d3d4 {
        fill: #000;
        stroke-width: 0px;
      }
    </style>
  </defs>
  <path class="uuid-8ec45ce4-aa19-46a2-8b45-1677b165d3d4" d="M162.058,313.766l5.968-5.968,2.079,2.079,71.252-71.251-2.08-2.08,5.431-5.431-2.78-5.228c-.008-.014.005-.018.024-.018.046,0,.127.017.124-.017-.104-.816-.17-2.606.567-5.425,1.56-5.962,6.56-16.21,21.525-31.176l53.883-53.884-61.407-61.407-49.838,49.838-.316.336c-.509.57-5.039,5.799-7.389,13.428-3.374,10.945-.637,21.567,7.706,29.91l12.389,12.389-3.978,3.978-13.381-13.381-11.313,11.314,13.381,13.381-3.731,3.73-13.381-13.382-11.313,11.314,13.381,13.381-3.465,3.465-16.079-16.078-5.448,7.925c-.446.648-10.999,16.119-17.467,36.012-9.083,27.935-5.625,50.96,10.002,66.587l5.657,5.656ZM172.029,222.926l13.366,13.365,56.429-56.429-23.703-23.703c-9.086-9.086-1.656-19.05.206-21.251l38.319-38.319,38.78,38.78-42.57,42.569c-24.421,24.423-27.572,40.725-26.766,49.169l-63.361,63.361c-13.034-21.397,1.092-52.728,9.301-67.543Z"/>
  <rect class="uuid-8ec45ce4-aa19-46a2-8b45-1677b165d3d4" x="253.971" y="167.096" width="79.203" height="16.001" transform="translate(-37.826 258.872) rotate(-45)"/>
  <path class="uuid-8ec45ce4-aa19-46a2-8b45-1677b165d3d4" d="M348.801,149.202c-3.125-3.123-8.189-3.123-11.314,0l-169.718,169.719h-30.912c-4.418,0-8,3.582-8,8s3.582,8,8,8h37.539l71.217-71.216v74.648c-.911.2-1.824.423-2.741.696-14.108,4.22-24.983,15.471-32.222,28.467h85.927c-7.511-13.86-20.18-25.811-34.964-29.122v-90.689l87.188-87.188c3.124-3.125,3.124-8.189,0-11.314Z"/>
  <path class="uuid-8ec45ce4-aa19-46a2-8b45-1677b165d3d4" d="M303.335,371.944h-99.445c-4.418,0-8,3.582-8,8s3.582,8,8,8h99.445c4.418,0,8-3.582,8-8s-3.582-8-8-8Z"/>
</svg>