<?xml version="1.0" encoding="UTF-8"?>
<svg id="uuid-d48f5b50-ee0b-4f77-a4cb-bc0a21e83725" data-name="Layer 1" xmlns="http://www.w3.org/2000/svg" viewBox="0 0 480 480">
  <defs>
    <style>
      .uuid-ed0f10a4-844d-4f08-b749-455983ef1947 {
        fill: #000;
        stroke-width: 0px;
      }
    </style>
  </defs>
  <path class="uuid-ed0f10a4-844d-4f08-b749-455983ef1947" d="M394.217,222.044l-.006-.308c-.041-1.062-.547-10.655-5.68-20.54-5.086-9.796-15.572-21.474-36.636-21.474-21.361,0-31.714,11.737-36.637,21.583-4.967,9.935-5.23,19.57-5.244,20.636v30.384h-15.152v-16.88c0-16.295-13.257-29.552-29.552-29.552h-50.62c-16.295,0-29.552,13.257-29.552,29.552v16.88h-15.151v-30.384c-.014-1.066-.277-10.702-5.245-20.636-4.923-9.846-15.275-21.583-36.637-21.583-21.064,0-31.55,11.678-36.636,21.474-5.132,9.885-5.639,19.479-5.68,20.54l-.006,112.153h32.843c-.028.371-.057.742-.057,1.12v7.261c0,8.284,6.716,15,15,15s15-6.716,15-15v-7.261c0-.378-.029-.749-.057-1.12h182.974c-.028.371-.057.742-.057,1.12v7.261c0,8.284,6.716,15,15,15s15-6.716,15-15v-7.261c0-.378-.029-.749-.057-1.12h32.844v-111.845ZM201.137,235.446c0-7.473,6.08-13.552,13.552-13.552h50.62c7.473,0,13.552,6.079,13.552,13.552v16.88h-77.725v-16.88ZM378.217,317.889H101.783v-95.644c.188-3.328,2.36-26.523,26.322-26.523,24.486,0,25.812,23.593,25.881,26.396v46.207h172.027v-46.192c.077-2.948,1.463-26.411,25.882-26.411,24.027,0,26.146,23.322,26.322,26.515v95.652Z"/>
  <path class="uuid-ed0f10a4-844d-4f08-b749-455983ef1947" d="M145.31,148.482c0-5.377,5.061-9.752,11.28-9.752h166.819c6.22,0,11.28,4.375,11.28,9.752v27.46h16v-27.46c0-14.2-12.238-25.752-27.28-25.752h-166.819c-15.042,0-27.28,11.552-27.28,25.752v27.46h16v-27.46Z"/>
</svg>