<?xml version="1.0" encoding="UTF-8"?>
<svg id="uuid-c5d03877-c76f-44dd-849f-f282eadc3615" data-name="Layer 1" xmlns="http://www.w3.org/2000/svg" viewBox="0 0 480 480">
  <g>
    <g id="uuid-f32a9dcd-6877-4bc2-83b3-937c66d4f763" data-name="&amp;lt;Radial Repeat&amp;gt;">
      <path d="M260.2294921875,273.454292721457023c-.689453125,0-1.3798828125-.02734375-2.0732421875-.08203125-11.0302734375-.8671875-18.2705078125-8.4541015625-20.3935546875-10.9814453125-2.4765625-2.2724609375-10.009765625-10.1025390625-10.4130859375-21.5439453125-.306640625-8.7021484375,3.5234375-16.93994140625,11.3837890625-24.48486328125l16.7919921875-16.11669921875c.0205078125-.01953125.0400390625-.03857421875.060546875-.05810546875l.4228515625-.40576171875.01171875.01220703125c4.7890625-4.13818359375,9.4580078125-1.71875,11.3095703125.20947265625.3623046875.37744140625.6875.79443359375.970703125,1.24169921875l14.947265625,15.89990234375c1.892578125,1.79443359375,10.076171875,10.25146484375,10.265625,22.4658203125.1318359375,8.53125-3.59765625,16.5-11.0849609375,23.6865234375-7.029296875,6.7470703125-14.48828125,10.1572265625-22.19921875,10.1572265625ZM249.9365234375,252.008003658957023c.0009765625-.0009765625,4.048828125,5.041015625,9.5712890625,5.4208984375,3.65625.248046875,7.654296875-1.6572265625,11.8408203125-5.6748046875,4.1181640625-3.953125,6.193359375-7.921875,6.16796875-11.7958984375-.0419921875-6.23876953125-5.2705078125-11.1962890625-5.3232421875-11.24560546875l-.421875-.416015625-10.6083984375-11.28515625c-2.5546875,2.4521484375-6.1904296875,5.94140625-11.349609375,10.8935546875-4.3994140625,4.22265625-6.578125,8.353515625-6.4765625,12.27880859375.1533203125,5.951171875,5.3466796875,10.51171875,5.3994140625,10.556640625l.7626953125.6357421875.4375.6318359375h0Z" style="fill: #000; stroke-width: 0px;"/>
    </g>
    <g id="uuid-9c946281-5741-4cc5-8511-e82296c239c1" data-name="&amp;lt;Radial Repeat&amp;gt;">
      <path d="M212.912109375,267.358589596457023c-3.5625,0-7.330078125-.5732421875-11.2861328125-1.720703125-10.1953125-2.95703125-17.2138671875-8.333984375-20.8623046875-15.9833984375-4.763671875-9.98583984375-1.814453125-20.04931640625-.6865234375-23.15185546875.73046875-3.2802734375,3.744140625-13.7197265625,13.451171875-19.78955078125,7.3828125-4.61572265625,16.431640625-5.41748046875,26.8974609375-2.3837890625l22.8720703125,6.634765625.0205078125.005859375.11328125.03369140625c4.794921875,1.466796875,6.544921875,6.169921875,5.458984375,9.91259765625-.1259765625.43310546875-.31640625.91650390625-.5751953125,1.4130859375l-6.310546875,20.9423828125c-.607421875,2.53515625-3.83984375,13.8515625-14.32421875,20.123046875-4.4150390625,2.640625-9.35546875,3.9638671875-14.7685546875,3.9638671875ZM195.15625,231.854195065207023c.0009765625,0-2.341796875,6.02685546875.0908203125,10.9990234375,1.6171875,3.30517578125,5.2626953125,5.80126953125,10.8359375,7.41748046875,5.5263671875,1.6044921875,10.0302734375,1.3984375,13.384765625-.607421875,5.28515625-3.162109375,6.962890625-10.04833984375,6.9765625-10.1162109375l.1640625-.63818359375,4.46875-14.830078125-15.1083984375-4.3828125c-5.857421875-1.6982421875-10.5244140625-1.52001953125-13.873046875.53076171875-5.0771484375,3.109375-6.4296875,9.88671875-6.4423828125,9.95458984375l-.1689453125.97802734375-.328125.69482421875h0Z" style="fill: #000; stroke-width: 0px;"/>
    </g>
    <g id="uuid-81f637cb-21c0-431e-aef9-d37c2793f5ed" data-name="&amp;lt;Radial Repeat&amp;gt;">
      <path d="M189.0185546875,221.956245846457023c-4.404296875,0-9.712890625-.8212890625-14.8505859375-3.68212890625-7.453125-4.15087890625-12.490234375-11.365234375-14.970703125-21.44287109375-2.5361328125-10.30712890625-1.388671875-19.07470703125,3.4111328125-26.05859375,6.2666015625-9.1181640625,16.45703125-11.595703125,19.7080078125-12.1708984375,3.2060546875-1.00732421875,13.7548828125-3.61572265625,23.86328125,1.75439453125,7.689453125,4.08544921875,12.9091796875,11.521484375,15.5126953125,22.10205078125,1.7353515625,7.0546875,2.9501953125,11.99072265625,3.798828125,15.43701171875l.001953125-.00048828125,1.890625,7.68994140625c.00390625.01513671875.0078125.02978515625.0107421875.044921875.0107421875.0439453125.0166015625.06787109375.01953125.0771484375l-.0009765625.00048828125c1.134765625,4.89208984375-2.0654296875,8.76416015625-5.8525390625,9.69580078125-.4384765625.107421875-.951171875.18408203125-1.5107421875.2080078125l-21.29296875,5.00634765625c-1.296875.384765625-4.9921875,1.3388671875-9.73828125,1.3388671875ZM185.220703125,174.336616940207023c.0078125,0-6.388671875.98291015625-9.48046875,5.578125-2.0546875,3.0537109375-2.392578125,7.45849609375-1.005859375,13.09326171875,1.36328125,5.54248046875,3.7626953125,9.32373046875,7.1318359375,11.23876953125,5.423828125,3.08251953125,12.3310546875,1.033203125,12.4013671875,1.0126953125l.5703125-.15673828125,15.0771484375-3.54541015625-3.759765625-15.27587890625c-1.45703125-5.9208984375-3.9453125-9.8740234375-7.3955078125-11.74853515625-5.2294921875-2.84375-11.775390625-.62548828125-11.8408203125-.60205078125l-.931640625.3427734375-.7666015625.06298828125h0Z" style="fill: #000; stroke-width: 0px;"/>
    </g>
    <g id="uuid-a18e56a1-29c2-4902-92b7-9f9c3ea74012" data-name="&amp;lt;Radial Repeat&amp;gt;">
      <path d="M218.478515625,191.445015377707023c-2.22265625,0-4.345703125-.94384765625-5.80859375-2.4677734375-.3125-.32568359375-.6357421875-.73193359375-.935546875-1.20458984375l-14.9814453125-15.9365234375c-1.892578125-1.7939453125-10.076171875-10.2509765625-10.265625-22.46533203125-.1318359375-8.53076171875,3.5966796875-16.5,11.083984375-23.6865234375,7.6591796875-7.35009765625,15.82421875-10.73876953125,24.2734375-10.07568359375,11.0302734375.8681640625,18.2705078125,8.45458984375,20.3935546875,10.982421875,2.4765625,2.2724609375,10.009765625,10.10205078125,10.4130859375,21.54345703125.306640625,8.7021484375-3.5234375,16.93994140625-11.3837890625,24.48486328125-5.2412109375,5.0302734375-8.9091796875,8.55029296875-11.4697265625,11.00830078125l.0009765625.0009765625-5.7138671875,5.482421875c-.0087890625.00830078125-.017578125.01708984375-.02734375.025390625-.041015625.0400390625-.0615234375.0595703125-.068359375.06591796875v-.00048828125c-1.681640625,1.56884765625-3.630859375,2.2431640625-5.5107421875,2.2431640625ZM219.8466796875,131.529976315207023c-3.4912109375,0-7.25390625,1.9140625-11.1953125,5.69775390625-4.1181640625,3.9521484375-6.193359375,7.9208984375-6.1669921875,11.79541015625.0419921875,6.23876953125,5.2705078125,11.1962890625,5.32421875,11.24560546875l.4208984375.416015625,10.6083984375,11.28466796875,11.3505859375-10.8935546875c4.3984375-4.22216796875,6.5771484375-8.35302734375,6.4755859375-12.2783203125-.1533203125-5.95166015625-5.3466796875-10.51123046875-5.3994140625-10.556640625l-.7626953125-.63525390625-.4375-.63232421875h0c-.0009765625.00048828125-4.048828125-5.04150390625-9.5712890625-5.4208984375-.2138671875-.0146484375-.4296875-.0224609375-.646484375-.0224609375Z" style="fill: #000; stroke-width: 0px;"/>
    </g>
    <g id="uuid-19a89808-ba63-4db5-8d67-103b7fb29f4f" data-name="&amp;lt;Radial Repeat&amp;gt;">
      <path d="M271.3251953125,186.453804440207023c-3.6845703125,0-7.6064453125-.60009765625-11.75-1.80224609375l-22.3525390625-6.48291015625c-.0107421875-.0029296875-.021484375-.00634765625-.033203125-.009765625l-.62109375-.1796875.0048828125-.01708984375c-5.966796875-2.07861328125-6.2080078125-7.32861328125-5.462890625-9.89599609375.1455078125-.50244140625.34375-.99267578125.58984375-1.4609375l6.294921875-20.89501953125c.607421875-2.53466796875,3.83984375-13.85107421875,14.32421875-20.12255859375,7.3212890625-4.37939453125,16.0859375-5.1357421875,26.0556640625-2.24365234375,10.1943359375,2.95654296875,17.2138671875,8.33447265625,20.861328125,15.98291015625,4.763671875,9.986328125,1.814453125,20.0498046875.6865234375,23.15234375-.73046875,3.2802734375-3.744140625,13.7197265625-13.451171875,19.78955078125-4.458984375,2.7880859375-9.52734375,4.18505859375-15.146484375,4.18505859375ZM248.9228515625,164.903023190207023l15.109375,4.3818359375c5.857421875,1.69921875,10.5234375,1.52099609375,13.8720703125-.5302734375,5.0771484375-3.10888671875,6.4296875-9.88623046875,6.4423828125-9.9541015625l.1689453125-.97802734375.328125-.69482421875h0c-.0009765625,0,2.341796875-6.02685546875-.08984375-10.99951171875-1.6171875-3.3056640625-5.2626953125-5.80126953125-10.8359375-7.41796875-5.48046875-1.58984375-9.95703125-1.40234375-13.2998046875.5576171875-5.3818359375,3.1552734375-7.0615234375,10.16259765625-7.0771484375,10.23291015625l-.1494140625.57177734375-4.46875,14.83056640625Z" style="fill: #000; stroke-width: 0px;"/>
    </g>
    <g id="uuid-7652d6ff-18cc-48b7-a942-246ef040c82f" data-name="&amp;lt;Radial Repeat&amp;gt;">
      <path d="M287.5068359375,231.904976315207023c-4.126953125,0-8.9541015625-.765625-13.6865234375-3.2802734375-7.689453125-4.08544921875-12.9091796875-11.521484375-15.5126953125-22.1015625l-5.560546875-22.599609375c-.0048828125-.0185546875-.009765625-.03759765625-.013671875-.056640625l-.1484375-.599609375.017578125-.00390625c-1.1865234375-6.2099609375,3.240234375-9.04541015625,5.8369140625-9.6845703125.5078125-.125,1.0322265625-.1982421875,1.560546875-.2197265625l21.2431640625-4.9951171875c2.5009765625-.74169921875,13.916015625-3.60009765625,24.587890625,2.34326171875,7.4541015625,4.15087890625,12.4912109375,11.365234375,14.9716796875,21.44287109375,2.5361328125,10.3076171875,1.388671875,19.07470703125-3.4111328125,26.05859375-6.2666015625,9.11865234375-16.45703125,11.595703125-19.70703125,12.1708984375-1.705078125.5361328125-5.4892578125,1.52490234375-10.177734375,1.525390625ZM270.0849609375,187.424019283957023c.8466796875,3.43896484375,2.05078125,8.33203125,3.759765625,15.27587890625,1.45703125,5.9208984375,3.9453125,9.87353515625,7.3955078125,11.74853515625,5.2265625,2.841796875,11.77734375.62451171875,11.841796875.60205078125l.931640625-.3427734375.7666015625-.06298828125h0c-.0078125,0,6.3876953125-.98291015625,9.4794921875-5.578125,2.0546875-3.05322265625,2.392578125-7.45849609375,1.005859375-13.09326171875-1.375-5.58837890625-3.8037109375-9.3857421875-7.21875-11.28759765625-5.3798828125-2.99609375-12.1826171875-1.005859375-12.2490234375-.984375l-.634765625.17724609375-15.078125,3.54541015625Z" style="fill: #000; stroke-width: 0px;"/>
    </g>
  </g>
  <g>
    <path d="M238.8701171875,364.472847408957023v-9.3037109375c0-54.0029296875,30.8359375-81.9462890625,56.7041015625-95.8779296875,27.423828125-14.76953125,54.53515625-17.00634765625,55.67578125-17.0947265625l8.615234375-.6640625v8.640625c0,39.4521484375-19.5390625,71.5546875-56.505859375,92.8388671875-27.240234375,15.68359375-54.158203125,19.8955078125-55.291015625,20.0673828125l-9.1982421875,1.3935546875ZM343.4384765625,259.474800533957023c-9.517578125,1.7685546875-25.23046875,5.7158203125-40.712890625,14.138671875-28.8125,15.67578125-44.7373046875,39.71875-47.44140625,71.5595703125,9.62109375-2.451171875,25.158203125-7.3603515625,40.484375-16.25390625,28.9208984375-16.7822265625,44.921875-40.11328125,47.669921875-69.4443359375Z" style="fill: #000; stroke-width: 0px;"/>
    <path d="M241.130859375,364.327339596457023l-9.1982421875-1.3935546875c-1.1328125-.171875-28.05078125-4.3837890625-55.2919921875-20.0673828125-36.9658203125-21.2841796875-56.505859375-53.3876953125-56.505859375-92.8388671875v-8.640625l8.615234375.6640625c1.140625.08837890625,28.251953125,2.3251953125,55.67578125,17.0947265625,25.869140625,13.931640625,56.705078125,41.875,56.705078125,95.8779296875v9.3037109375ZM136.560546875,259.314644283957023c2.7548828125,29.4755859375,18.8896484375,52.8876953125,48.064453125,69.685546875,15.2626953125,8.7880859375,30.578125,13.6220703125,40.0927734375,16.0390625-2.7138671875-32.01171875-18.7861328125-56.138671875-47.8779296875-71.806640625-15.4169921875-8.302734375-30.8818359375-12.1806640625-40.279296875-13.91796875Z" style="fill: #000; stroke-width: 0px;"/>
  </g>
</svg>