<?xml version="1.0" encoding="UTF-8"?>
<svg id="uuid-33ff6f39-554a-4ac7-83ec-985a720fc197" data-name="Layer 1" xmlns="http://www.w3.org/2000/svg" viewBox="0 0 480 480">
  <defs>
    <style>
      .uuid-4a98f18a-ca51-46a9-aff3-f1f617662c2e {
        fill: #000;
        stroke-width: 0px;
      }
    </style>
  </defs>
  <path class="uuid-4a98f18a-ca51-46a9-aff3-f1f617662c2e" d="M158.288,166.057l51.12,51.12-21.066,21.066s-8.867,8.401.895,18.163c10.307,10.307,18.163.895,18.163.895l44.804-44.804-19.057-19.057-17.324,17.324-51.12-51.12,7.484-7.484-36.848-36.848-21.026,21.026,36.848,36.848,7.127-7.127Z"/>
  <path class="uuid-4a98f18a-ca51-46a9-aff3-f1f617662c2e" d="M355.896,328.26l-57.292-57.293.637-.637c3.125-3.124,3.125-8.189,0-11.314-3.123-3.122-8.188-3.123-11.313,0l-29.909,29.908c-3.125,3.124-3.125,8.189,0,11.314,1.562,1.562,3.609,2.343,5.657,2.343s4.095-.781,5.657-2.343l.65-.65,57.354,57.353c1.455,1.63,7.118,7.354,15.193,7.729.263.012.535.019.815.019,3.725,0,8.951-1.179,14.066-6.294,5.305-5.305,6.271-10.812,6.148-14.499-.278-8.312-6.193-14.279-7.663-15.637ZM346.097,347.082c-.75.75-1.847,1.665-2.8,1.606-1.324-.043-3.133-1.41-3.979-2.351l-.141-.183-57.881-57.881,5.994-5.994,57.427,57.427.322.304c1.002.921,2.499,2.972,2.53,4.446.006.279.024,1.129-1.472,2.624Z"/>
  <path class="uuid-4a98f18a-ca51-46a9-aff3-f1f617662c2e" d="M339.578,216.257c6.767-6.767-.467-15.091-.467-15.091l-34.848-35.47-23.647,23.958-34.07-34.07s-9.334-11.045-22.013,1.634c-11.707,11.707-1.789,21.858-1.789,21.858l34.07,34.07-103.766,103.766s-14.313,12.757,4.045,31.114c18.824,18.824,30.803,4.356,30.803,4.356l136.591-136.591s8.323,7.234,15.09.467ZM182.781,339.127s-5.964,7.676-15.401-1.76c-9.543-9.543-1.76-15.401-1.76-15.401l138.167-138.167,17.161,17.161-138.167,138.167Z"/>
  <path class="uuid-4a98f18a-ca51-46a9-aff3-f1f617662c2e" d="M308.181,156.517l44.182,44.182s27.154-22.19,3.935-45.409c-11.346-11.346-23.873-23.808-33.253-33.198-5.122-5.127-13.427-5.128-18.552-.003l-44.282,44.282,19.057,19.058,28.911-28.911Z"/>
</svg>