<?xml version="1.0" encoding="UTF-8"?>
<svg id="uuid-7d6ddf00-968a-49ab-8b52-aac001e563c8" data-name="Layer 1" xmlns="http://www.w3.org/2000/svg" viewBox="0 0 480 480">
  <defs>
    <style>
      .uuid-a01656d4-7906-47ff-83d4-4b8c1e980c0b {
        fill: #000;
        stroke-width: 0px;
      }
    </style>
  </defs>
  <path class="uuid-a01656d4-7906-47ff-83d4-4b8c1e980c0b" d="M252.721,136.021c-7.159-5.542-17.211-5.597-24.447-.133-23.157,17.482-80.071,87.861-77.023,150.305,1.396,28.608,15.079,51.052,40.668,66.709l1.921,1.176,91.542.01,1.917-1.166c25.733-15.655,39.595-38.068,41.2-66.615,3.468-61.673-52.805-132.497-75.778-150.286ZM312.524,285.408c-1.253,22.283-11.907,39.996-31.676,52.679l-82.449-.009c-19.597-12.657-30.079-30.365-31.167-52.666-1.449-29.685,13.317-61.057,25.96-82.147,15.683-26.162,34.176-46.646,44.723-54.608,1.488-1.124,3.548-1.117,5.01.015,20.397,15.794,72.69,81.76,69.599,136.736Z"/>
  <rect class="uuid-a01656d4-7906-47ff-83d4-4b8c1e980c0b" x="196.37" y="358.189" width="87.046" height="16"/>
  <polygon class="uuid-a01656d4-7906-47ff-83d4-4b8c1e980c0b" points="215.008 267.677 204.778 279.978 231.893 302.528 231.893 334.927 247.893 334.927 247.893 302.528 275.008 279.978 264.778 267.677 239.893 288.371 215.008 267.677"/>
  <path class="uuid-a01656d4-7906-47ff-83d4-4b8c1e980c0b" d="M119.496,199.551l-35.484-5.061c-4.364-.622-8.425,2.416-9.049,6.791-.624,4.374,2.417,8.425,6.791,9.049l35.484,5.061c.383.055.763.081,1.14.081,3.917,0,7.34-2.88,7.91-6.872.624-4.374-2.417-8.425-6.791-9.049Z"/>
  <path class="uuid-a01656d4-7906-47ff-83d4-4b8c1e980c0b" d="M160.8,141.457c1.879,0,3.766-.658,5.286-1.998,3.315-2.921,3.634-7.976.713-11.292l-23.696-26.893c-2.922-3.315-7.977-3.634-11.292-.713-3.315,2.921-3.634,7.976-.713,11.292l23.696,26.893c1.582,1.794,3.788,2.711,6.005,2.711Z"/>
  <path class="uuid-a01656d4-7906-47ff-83d4-4b8c1e980c0b" d="M241.126,112.733c.042,0,.084,0,.126,0,4.417-.068,7.944-3.705,7.875-8.123l-.553-35.839c-.068-4.417-3.665-7.931-8.123-7.875-4.417.068-7.944,3.705-7.875,8.123l.553,35.839c.067,4.376,3.635,7.876,7.997,7.876Z"/>
  <path class="uuid-a01656d4-7906-47ff-83d4-4b8c1e980c0b" d="M348.824,101.287c-3.403-2.817-8.446-2.342-11.264,1.062l-22.855,27.611c-2.817,3.403-2.342,8.446,1.062,11.264,1.492,1.235,3.3,1.837,5.097,1.837,2.301,0,4.585-.988,6.167-2.899l22.855-27.611c2.817-3.403,2.342-8.446-1.062-11.264Z"/>
  <path class="uuid-a01656d4-7906-47ff-83d4-4b8c1e980c0b" d="M404.998,202.385c-.759-4.353-4.898-7.267-9.254-6.508l-35.312,6.153c-4.353.758-7.267,4.902-6.508,9.254.678,3.889,4.056,6.628,7.872,6.628.456,0,.918-.039,1.382-.12l35.312-6.153c4.353-.758,7.267-4.902,6.508-9.254Z"/>
  <rect class="uuid-a01656d4-7906-47ff-83d4-4b8c1e980c0b" x="196.37" y="378.305" width="87.046" height="16"/>
  <path class="uuid-a01656d4-7906-47ff-83d4-4b8c1e980c0b" d="M265.851,408.957c3.258-2.908,6.056-5.844,8.653-9.819h-69.222c14.095,21.196,40.887,27.182,60.569,9.819Z"/>
</svg>