<?xml version="1.0" encoding="UTF-8"?>
<svg id="uuid-138aad8a-fb5b-4828-9f1b-08251eec4595" data-name="Layer 1" xmlns="http://www.w3.org/2000/svg" viewBox="0 0 480 480">
  <defs>
    <style>
      .uuid-fe5b5e01-0881-45d7-ad2c-70559a248336 {
        fill: #000;
        stroke-width: 0px;
      }
    </style>
  </defs>
  <path class="uuid-fe5b5e01-0881-45d7-ad2c-70559a248336" d="M182.963,301.908h114.074c14.087,0,25.547-11.46,25.547-25.546V120.628c0-14.024-11.409-25.484-25.434-25.546l-114.075-.504h-.116c-6.801,0-13.197,2.64-18.021,7.442-4.851,4.83-7.522,11.259-7.522,18.104v156.239c0,14.086,11.46,25.546,25.546,25.546ZM173.417,120.123c0-2.558.998-4.96,2.811-6.765,1.802-1.795,4.192-2.781,6.734-2.781h.043l114.075.504c5.24.023,9.504,4.306,9.504,9.546v155.734c0,5.264-4.282,9.546-9.547,9.546h-114.074c-5.264,0-9.546-4.282-9.546-9.546V120.123Z"/>
  <rect class="uuid-fe5b5e01-0881-45d7-ad2c-70559a248336" x="207.908" y="157.863" width="98.141" height="15.999" transform="translate(-26.017 281.886) rotate(-55.132)"/>
  <rect class="uuid-fe5b5e01-0881-45d7-ad2c-70559a248336" x="215.19" y="231.144" width="69.137" height="16.001" transform="translate(-89.232 307.368) rotate(-55.135)"/>
  <path class="uuid-fe5b5e01-0881-45d7-ad2c-70559a248336" d="M357.485,349.271h-13.78v-184.489c0-4.418-3.582-8-8-8s-8,3.582-8,8v184.489h-175.41v-184.489c0-4.418-3.582-8-8-8s-8,3.582-8,8v184.489h-13.781c-4.418,0-8,3.582-8,8s3.582,8,8,8h234.971c4.418,0,8-3.582,8-8s-3.582-8-8-8Z"/>
  <path class="uuid-fe5b5e01-0881-45d7-ad2c-70559a248336" d="M338.675,369.423h-197.35c-4.418,0-8,3.582-8,8s3.582,8,8,8h197.35c4.418,0,8-3.582,8-8s-3.582-8-8-8Z"/>
</svg>