<?xml version="1.0" encoding="UTF-8"?>
<svg id="uuid-5fa94abe-c66e-4f81-874e-d1a55b292c41" data-name="Layer 1" xmlns="http://www.w3.org/2000/svg" viewBox="0 0 480 480">
  <path d="M333.150390625,263.389404296875h-165.1240234375l-21.1767578125-28.2958984375,21.1767578125-28.2958984375h165.1240234375v56.591796875ZM176.0361328125,247.389404296875h141.1142578125v-24.591796875h-141.1142578125l-9.2021484375,12.2958984375,9.2021484375,12.2958984375Z" style="fill: #000; stroke-width: 0px;"/>
  <polygon points="316.226224436117263 134.78249484303069 332.795549023203421 156.969215013717076 316.226224436117263 179.155935184401642 149.196742711466868 179.155935184401642 149.196742711466868 134.78249484303069 316.226224436117263 134.78249484303069" style="fill: #000; stroke-width: 0px;"/>
  <g>
    <rect x="232.99609375" y="257.349853515625" width="16" height="64.2626953125" style="fill: #000; stroke-width: 0px;"/>
    <rect x="232.99609375" y="115.682861328125" width="16" height="100.0849609375" style="fill: #000; stroke-width: 0px;"/>
    <g>
      <path d="M283.959524773585144,343.888668130056431h-85.9267578125c7.238999589048035-12.995905598641912,18.113944219881887-24.246865782297391,32.22242199068387-28.467398107433837,22.458065726308632-6.698135904029186,43.160476577451846,9.01162352616484,53.70433582181613,28.467398107433837h0Z" style="fill: #000; stroke-width: 0px;"/>
      <path d="M290.71875,364.317138671875h-99.4453125c-4.41796875,0-8-3.58154296875-8-8s3.58203125-8,8-8h99.4453125c4.41796875,0,8,3.58154296875,8,8s-3.58203125,8-8,8Z" style="fill: #000; stroke-width: 0px;"/>
    </g>
  </g>
</svg>