<?xml version="1.0" encoding="UTF-8"?>
<svg id="uuid-762ef0b4-3e64-4948-a7cb-9477af2b3575" data-name="Layer 1" xmlns="http://www.w3.org/2000/svg" viewBox="0 0 479.712 479.715">
  <defs>
    <style>
      .uuid-ef61c4b8-db38-4c0d-a23b-0a3943bda9cd {
        fill: #000;
        stroke-width: 0px;
      }
    </style>
  </defs>
  <path class="uuid-ef61c4b8-db38-4c0d-a23b-0a3943bda9cd" d="M246.357,0c2.506.152,5.011.316,7.517.453,19.677,1.076,38.918,4.575,57.712,10.48,34.866,10.954,65.695,28.906,92.296,53.942,33.767,31.781,56.567,70.16,68.29,115.059,3.936,15.075,6.27,30.409,7.14,45.969,2.286,40.891-5.207,79.891-22.729,116.911-11.045,23.337-25.588,44.296-43.457,62.943-19.858,20.722-42.682,37.385-68.48,49.952-19.746,9.619-40.442,16.353-62.068,20.228-11.737,2.103-23.56,3.332-35.48,3.672-38.533,1.102-75.259-6.498-110.098-22.997-23.334-11.051-44.304-25.577-62.952-43.444-20.664-19.798-37.298-42.542-49.861-68.255-9.108-18.641-15.644-38.148-19.644-58.509-2.531-12.884-3.999-25.883-4.394-39.006-.01-.349-.098-.696-.15-1.043,0-4.318,0-8.636,0-12.954.152-2.502.32-5.003.452-7.507.706-13.434,2.565-26.713,5.629-39.803,11.096-47.404,34.383-87.853,69.802-121.22,26.62-25.077,57.5-43.028,92.406-53.981C187.044,5.007,206.249,1.521,225.886.453c2.507-.136,5.012-.301,7.517-.453,4.318,0,8.636,0,12.954,0ZM239.962,465.283c123.996-.134,224.31-100.038,225.295-223.502.999-125.284-99.693-226.281-223.422-227.281C116.471,13.487,15.409,114.273,14.497,238.105c-.926,125.677,100.637,227.176,225.465,227.177Z"/>
  <path class="uuid-ef61c4b8-db38-4c0d-a23b-0a3943bda9cd" d="M304.984,289.294c3.192,7.499,6.31,14.932,9.514,22.328,6.711,15.491,13.261,31.056,20.268,46.413,6.284,13.774,13.977,26.773,23.612,38.523,2.028,2.473,4.379,4.685,6.632,6.967,2.929,2.967,6.779,3.813,10.688,4.323,2.894.377,5.828.447,8.743.663.563.042,1.214-.032,1.661.227.621.36,1.457.945,1.518,1.508.064.587-.565,1.669-1.097,1.824-1.74.507-3.574.952-5.373.955-11.854.024-23.709.007-35.562-.159-8.965-.126-17.927-.476-26.888-.774-1.165-.039-2.348-.269-3.467-.601-.487-.144-1.153-.758-1.165-1.175-.017-.6.436-1.249.795-1.809.15-.234.564-.315.871-.43,3.035-1.137,4.268-3.227,3.557-6.399-.348-1.552-.942-3.059-1.535-4.543-12.396-31.04-24.808-62.073-37.219-93.107-.173-.433-.373-.855-.595-1.36-28.487,8.872-56.955,6.388-85.633.128-.536,1.447-1.126,3.018-1.701,4.593-7.479,20.458-15.128,40.856-22.352,61.404-3.106,8.832-5.493,17.931-7.891,26.993-1.37,5.177.628,8.752,5.637,10.672,2.331.893,4.916,1.196,7.416,1.552,1.717.244,3.49.063,5.231.183.918.063,1.765.43,1.907,1.551.147,1.161-.387,1.993-1.446,2.292-1.121.316-2.314.576-3.467.545-7.406-.2-14.809-.666-22.215-.698-8.725-.038-17.451.316-26.177.422-7.785.095-15.572.091-23.358.107-.555.001-1.124-.153-1.661-.316-1.07-.325-1.928-.912-1.802-2.189.119-1.212,1.054-1.631,2.093-1.736,1.359-.138,2.731-.147,4.096-.233,2.214-.14,4.431-.245,6.638-.46,6.067-.592,10.564-4.049,14.579-8.244,6.235-6.514,10.706-14.227,14.785-22.188,5.388-10.514,9.423-21.606,13.839-32.534,6.217-15.388,12.375-30.801,18.556-46.203.207-.517.39-1.043.587-1.572-2.284-1.257-4.517-2.378-6.643-3.673-10.73-6.538-18.266-15.967-23.99-26.945-5.025-9.636-7.786-20.007-9.476-30.69-1.611-10.191-2.124-20.454-2.11-30.761.033-23.051.04-46.103-.002-69.154-.021-11.38-.1-22.761-.31-34.139-.08-4.33-.445-8.671-.956-12.974-.776-6.539-4.614-10.557-10.995-11.855-3.723-.758-7.559-.962-11.346-1.404-.42-.049-.855.017-1.273-.041-1.005-.138-1.833-.526-1.942-1.693-.11-1.174.483-1.948,1.57-2.191,1.049-.234,2.147-.379,3.219-.354,11.231.257,22.459.715,33.69.788,7.687.05,15.376-.445,23.066-.649,3.633-.097,7.27-.095,10.905-.111.511-.002,1.027.129,1.533.237,1.214.257,1.993.972,1.878,2.259-.114,1.269-1.089,1.626-2.217,1.747-2.531.272-5.072.495-7.586.886-6.659,1.036-10.046,4.276-10.997,11.371-.756,5.642-1.144,11.372-1.17,17.066-.155,34.527-.261,69.054-.165,103.581.041,14.619,1.397,29.133,5.789,43.198,3.171,10.153,8.119,19.28,15.705,26.86.264.264.424.631.823,1.241.944-2.303,1.715-4.151,2.461-6.009,15.991-39.817,31.971-79.638,47.985-119.445.86-2.137,1.867-4.237,3.026-6.226,1.978-3.396,4.595-3.465,6.529-.019,1.932,3.444,3.593,7.059,5.132,10.701,16.295,38.571,32.542,77.162,48.804,115.747.199.472.422.934.732,1.618.574-.637,1.089-1.149,1.536-1.715,6.009-7.606,9.799-16.294,12.353-25.565,2.681-9.733,4.177-19.683,4.543-29.744.438-12.028.552-24.071.601-36.109.089-21.776.105-43.552-.014-65.328-.048-8.868-.422-17.739-.86-26.598-.198-4.004-1.228-7.862-4.391-10.732-2.62-2.377-5.872-3.41-9.249-3.929-3.023-.465-6.099-.581-9.152-.846-.516-.045-1.149.116-1.526-.128-.61-.395-1.435-1.028-1.465-1.598-.034-.661.542-1.727,1.12-1.965,1.092-.448,2.379-.603,3.578-.576,10.428.24,20.852.69,31.281.781,6.269.055,12.542-.45,18.815-.644,3.397-.105,6.797-.102,10.196-.113.557-.002,1.125.133,1.668.278,1.142.304,1.8,1.02,1.675,2.263-.126,1.252-1.042,1.582-2.098,1.682-2.063.196-4.133.326-6.189.573-1.071.129-2.123.436-3.178.687-6.221,1.482-8.832,6.022-9.466,11.825-.614,5.619-1.013,11.291-1.038,16.941-.136,29.946-.088,59.893-.183,89.839-.044,13.938-.747,27.838-3.383,41.57-2.539,13.227-6.726,25.818-14.434,37.033-3.69,5.369-8.093,10.079-13.151,14.181-.585.475-1.168.952-1.876,1.529ZM270.231,282.52c-.214-.592-.336-.962-.48-1.322-5.002-12.52-10.006-25.04-15.011-37.558-5.139-12.852-10.276-25.705-15.428-38.552-.37-.923-.786-1.844-1.31-2.684-.775-1.241-1.602-1.232-2.369-.009-.399.636-.713,1.34-.973,2.048-8.988,24.536-17.965,49.077-26.943,73.617-.364.996-.717,1.996-1.124,3.133,1.842.574,3.535,1.159,5.259,1.628,8.068,2.192,16.329,2.916,24.649,3.164,8.555.256,17.101.327,25.531-1.493,2.712-.585,5.398-1.295,8.199-1.972Z"/>
</svg>