<?xml version="1.0" encoding="UTF-8"?>
<svg id="uuid-297c16dc-b601-4deb-a310-639eb28fe7b5" data-name="Layer 1" xmlns="http://www.w3.org/2000/svg" viewBox="0 0 480 480">
  <defs>
    <style>
      .uuid-071991a5-97bc-4781-a928-a74f85a09840 {
        fill: #000;
        stroke-width: 0px;
      }
    </style>
  </defs>
  <path class="uuid-071991a5-97bc-4781-a928-a74f85a09840" d="M231.118,203.992h16.198v-69.493l.026-.215-.046-.402c-.008-.448.012-3.422,1.672-5.17,1.216-1.28,3.407-1.929,6.51-1.929,2.1,0,4.897.319,6.299,1.837,1.358,1.472,1.514,4.099,1.459,5.016l-.044,14.226h16.198v-13.036c.163-2.371.246-10.53-5.494-16.953-2.971-3.325-8.579-7.288-18.419-7.288s-15.459,3.925-18.485,7.218c-5.946,6.469-5.979,14.756-5.875,16.93v69.258Z"/>
  <polygon class="uuid-071991a5-97bc-4781-a928-a74f85a09840" points="185.704 203.596 201.902 203.596 201.902 165.651 151.037 165.651 151.037 181.849 185.704 181.849 185.704 203.596"/>
  <polygon class="uuid-071991a5-97bc-4781-a928-a74f85a09840" points="278.098 203.596 294.296 203.596 294.296 181.849 328.963 181.849 328.963 165.651 278.098 165.651 278.098 203.596"/>
  <path class="uuid-071991a5-97bc-4781-a928-a74f85a09840" d="M361.309,226.672H118.691c-4.473,0-8.099,3.626-8.099,8.099s3.626,8.099,8.099,8.099h16.323v51.049h-.114c-4.473,0-8.099,3.626-8.099,8.099s3.626,8.099,8.099,8.099h.114v51.197c0,4.473,3.626,8.099,8.099,8.099s8.099-3.626,8.099-8.099v-51.197h177.577v51.197c0,4.473,3.626,8.099,8.099,8.099s8.099-3.626,8.099-8.099v-51.197h.114c4.473,0,8.099-3.626,8.099-8.099s-3.626-8.099-8.099-8.099h-.114v-51.049h16.323c4.473,0,8.099-3.626,8.099-8.099s-3.626-8.099-8.099-8.099ZM292.738,242.87c-.451,2.871-1.823,7.4-5.894,11.748-8.121,8.674-23.786,13.26-45.303,13.26-42.238,0-51.735-17.249-53.87-25.008h105.067ZM328.789,293.919h-177.577v-51.049h19.941c.73,4.987,3.22,14.026,11.626,22.533,12.241,12.39,32.012,18.672,58.763,18.672s46.203-6.345,57.561-18.858c7.578-8.348,9.517-17.168,9.942-22.348h19.745v51.049Z"/>
  <path class="uuid-071991a5-97bc-4781-a928-a74f85a09840" d="M139.77,223.148h200.461c4.473,0,8.099-3.626,8.099-8.099s-3.626-8.099-8.099-8.099h-200.461c-4.473,0-8.099,3.626-8.099,8.099s3.626,8.099,8.099,8.099Z"/>
</svg>